<mxfile host="app.diagrams.net" modified="2021-12-27T16:25:55.650Z" agent="5.0 (Windows NT 10.0; Win64; x64) AppleWebKit/537.36 (KHTML, like Gecko) Chrome/96.0.4664.110 Safari/537.36" etag="tO10amMnYwXY6XJQiBxa" version="15.6.8" type="github">
  <diagram id="M4Reu8gBly-uSzF3nyhs" name="Page-1">
    <mxGraphModel dx="1185" dy="1662" grid="1" gridSize="10" guides="1" tooltips="1" connect="1" arrows="1" fold="1" page="1" pageScale="1" pageWidth="3000" pageHeight="1000" math="0" shadow="0">
      <root>
        <mxCell id="0" />
        <mxCell id="1" parent="0" />
        <mxCell id="384v3MKugvlHrnDzXGjQ-1" value="&lt;br&gt;&lt;br&gt;&lt;span style=&quot;color: rgb(41 , 49 , 63) ; font-family: &amp;#34;segoe ui&amp;#34; ; font-size: 18px ; font-style: italic ; font-weight: 400 ; letter-spacing: normal ; text-align: left ; text-indent: 0px ; text-transform: none ; word-spacing: 0px ; background-color: rgb(255 , 255 , 255) ; display: inline ; float: none&quot;&gt;После того, как поставщик уведомляет розничного продавца об утверждении заказа на поставку&lt;br&gt;&amp;nbsp;поставщик может получить от продавца подтверждение заказа, изменение или отмену заказа. &lt;br&gt;&lt;br&gt;Может случиться так, что ответа не будет вообще. Если в течение 48 часов не будет получено ответа или получено сообщение об отмене заказа, поставщик отменяет заказ. &lt;br&gt;&lt;br&gt;Если подтверждение заказа будет получено в течение 48 часов, поставщик обработает заказ в обычном режиме. &lt;br&gt;&lt;br&gt;Если изменение заказа поступает в течение 48 часов, поставщик обновит заказ и снова запросит подтверждение у продавца. &lt;br&gt;&lt;br&gt;Розничному продавцу разрешается изменять заказ не более трех раз. После этого поставщик автоматически отменит заказ. &lt;br&gt;&lt;br&gt;Если заказ отменен, поставщик отправляет розничному продавцу анкету обратной связи с покупателем.&lt;/span&gt;&lt;br&gt;" style="text;html=1;strokeColor=none;fillColor=none;align=center;verticalAlign=middle;whiteSpace=wrap;rounded=0;" vertex="1" parent="1">
          <mxGeometry x="50" y="120" width="910" height="30" as="geometry" />
        </mxCell>
      </root>
    </mxGraphModel>
  </diagram>
</mxfile>
